<?xml version="1.0" encoding="utf-8"?>
<!-- Generator: Adobe Illustrator 16.0.0, SVG Export Plug-In . SVG Version: 6.00 Build 0)  -->
<!DOCTYPE svg PUBLIC "-//W3C//DTD SVG 1.1//EN" "http://www.w3.org/Graphics/SVG/1.1/DTD/svg11.dtd">
<svg version="1.1" id="Layer_1" xmlns="http://www.w3.org/2000/svg" xmlns:xlink="http://www.w3.org/1999/xlink" x="0px" y="0px"
	 width="21.468px" height="21.495px" viewBox="0 0 21.468 21.495" enable-background="new 0 0 21.468 21.495" xml:space="preserve">
<path fill="#666666" d="M10.748,0C4.836,0,0,4.835,0,10.748c0,5.911,4.836,10.747,10.748,10.747c2.953,0,5.696-1.155,7.63-3.118
	l-1.934-1.934c-1.451,1.451-3.466,2.364-5.724,2.364c-4.46,0-8.06-3.6-8.06-8.06c0-4.461,3.6-8.061,8.06-8.061
	c2.231,0,4.165,0.967,5.615,2.446l-2.928,2.928h8.061V0l-3.199,3.197C16.335,1.262,13.675,0,10.72,0H10.748z"/>
</svg>
